<svg xmlns="http://www.w3.org/2000/svg" viewBox="0 0 1920 1080" preserveAspectRatio="xMidYMid slice">
  <!-- Defining gradients for smooth color transitions -->
  <defs>
    <linearGradient id="bgGradient" x1="0%" y1="0%" x2="100%" y2="100%">
      <stop offset="0%" style="stop-color:#0A0A2A;stop-opacity:1" />
      <stop offset="100%" style="stop-color:#1C0A4D;stop-opacity:1" />
    </linearGradient>
    <linearGradient id="neonGradient" x1="0%" y1="0%" x2="100%" y2="0%">
      <stop offset="0%" style="stop-color:#00FFFF;stop-opacity:0.3" />
      <stop offset="100%" style="stop-color:#00FFAA;stop-opacity:0.2" />
    </linearGradient>
  </defs>
  
  <!-- Background fill with gradient -->
  <rect width="100%" height="100%" fill="url(#bgGradient)" />
  
  <!-- Hexagonal grid pattern -->
  <g opacity="0.3">
    <path d="M200 100 L250 150 L250 250 L200 300 L150 250 L150 150 Z" fill="none" stroke="#00FFFF" stroke-width="1" />
    <path d="M300 150 L350 200 L350 300 L300 350 L250 300 L250 200 Z" fill="none" stroke="#00FFFF" stroke-width="1" />
    <path d="M400 100 L450 150 L450 250 L400 300 L350 250 L350 150 Z" fill="none" stroke="#00FFFF" stroke-width="1" />
    <path d="M500 150 L550 200 L550 300 L500 350 L450 300 L450 200 Z" fill="none" stroke="#00FFFF" stroke-width="1" />
  </g>
  
  <!-- Interconnected nodes with neon accents -->
  <g opacity="0.5">
    <circle cx="600" cy="300" r="10" fill="#00FFFF" />
    <circle cx="700" cy="350" r="10" fill="#00FFFF" />
    <circle cx="650" cy="400" r="10" fill="#00FFFF" />
    <line x1="600" y1="300" x2="700" y2="350" stroke="url(#neonGradient)" stroke-width="2" />
    <line x1="700" y1="350" x2="650" y2="400" stroke="url(#neonGradient)" stroke-width="2" />
    <line x1="600" y1="300" x2="650" y2="400" stroke="url(#neonGradient)" stroke-width="2" />
  </g>
  
  <!-- Abstract messaging symbols (speech bubbles and data streams) -->
  <g opacity="0.4">
    <!-- Simplified speech bubble -->
    <path d="M900 500 Q950 450 1000 500 T1100 500" fill="none" stroke="#00FFAA" stroke-width="3" />
    <path d="M1000 550 L1050 600 L1100 550" fill="none" stroke="#00FFAA" stroke-width="3" />
    <!-- Data stream lines -->
    <path d="M1200 200 Q1250 250 1300 200" fill="none" stroke="#00FFFF" stroke-width="2" stroke-dasharray="5,5" />
    <path d="M1220 220 Q1270 270 1320 220" fill="none" stroke="#00FFFF" stroke-width="2" stroke-dasharray="5,5" />
  </g>
  
  <!-- Subtle particle-like dots for depth -->
  <g opacity="0.2">
    <circle cx="200" cy="800" r="3" fill="#00FFFF" />
    <circle cx="300" cy="850" r="2" fill="#00FFAA" />
    <circle cx="400" cy="780" r="4" fill="#00FFFF" />
    <circle cx="1600" cy="200" r="3" fill="#00FFAA" />
    <circle cx="1700" cy="250" r="2" fill="#00FFFF" />
  </g>
</svg>